<?xml version="1.0" encoding="UTF-8" standalone="no"?>
<svg width="400px" height="500px" viewBox="0 0 400 500" version="1.1" xmlns="http://www.w3.org/2000/svg" xmlns:xlink="http://www.w3.org/1999/xlink" xmlns:sketch="http://www.bohemiancoding.com/sketch/ns">
    <!-- Generator: Sketch 3.3.2 (12043) - http://www.bohemiancoding.com/sketch -->
    <title>background</title>
    <desc>Created with Sketch.</desc>
    <defs>
        <linearGradient x1="17.592235%" y1="17.4197623%" x2="86.3918192%" y2="85.5448413%" id="linearGradient-1">
            <stop stop-color="#005EFF" offset="0%"></stop>
            <stop stop-color="#FF00FB" offset="100%"></stop>
        </linearGradient>
    </defs>
    <g id="Page-1" stroke="none" stroke-width="1" fill="none" fill-rule="evenodd" sketch:type="MSPage">
        <g id="Login-BG" sketch:type="MSArtboardGroup" fill-opacity="0.15" fill="url(#linearGradient-1)">
            <path d="M0,0 L50,0 L50,500 L0,500 L0,0 Z M70,0 L120,0 L120,500 L70,500 L70,0 Z M140,0 L190,0 L190,500 L140,500 L140,0 Z M210,0 L260,0 L260,500 L210,500 L210,0 Z M280,0 L330,0 L330,500 L280,500 L280,0 Z M350,0 L400,0 L400,500 L350,500 L350,0 Z" id="Rectangle-13" sketch:type="MSShapeGroup"></path>
        </g>
    </g>
</svg>